<svg width="182" height="37" viewBox="0 0 182 37" fill="none" xmlns="http://www.w3.org/2000/svg">
<path d="M0 6.66672C0 2.98479 2.98479 0 6.66672 0H94.0007C97.6826 0 100.667 2.98479 100.667 6.66672V30.0002C100.667 33.6822 97.6826 36.6669 94.0007 36.6669H6.66672C2.98479 36.6669 0 33.6822 0 30.0002V6.66672Z" fill="#0A9396"/>
<path d="M10.0228 30.0002V6.72732H25.432V10.7842H14.9433V16.3297H24.4093V20.3865H14.9433V30.0002H10.0228Z" fill="white"/>
<path d="M33.4093 30.3298C32.2957 30.3298 31.3033 30.1366 30.4321 29.7502C29.5608 29.3563 28.8714 28.7767 28.3639 28.0116C27.8638 27.2388 27.6138 26.2767 27.6138 25.1252C27.6138 24.1555 27.7919 23.3411 28.1479 22.682C28.504 22.0229 28.9889 21.4926 29.6025 21.0911C30.2161 20.6896 30.9131 20.3865 31.6934 20.182C32.4813 19.9774 33.3071 19.8335 34.1707 19.7502C35.1859 19.6441 36.0041 19.5456 36.6253 19.4547C37.2465 19.3562 37.6973 19.2123 37.9776 19.0229C38.2579 18.8335 38.398 18.5532 38.398 18.182V18.1138C38.398 17.3941 38.1707 16.8372 37.7162 16.4433C37.2692 16.0494 36.6329 15.8524 35.8071 15.8524C34.9359 15.8524 34.2427 16.0456 33.7275 16.4319C33.2124 16.8107 32.8715 17.288 32.7048 17.8638L28.2275 17.5001C28.4548 16.4395 28.9017 15.5228 29.5684 14.7501C30.2351 13.9698 31.0949 13.3713 32.148 12.9546C33.2086 12.5304 34.4359 12.3183 35.8298 12.3183C36.7995 12.3183 37.7276 12.4319 38.6139 12.6592C39.5079 12.8865 40.2995 13.2387 40.9889 13.716C41.6859 14.1933 42.2352 14.8069 42.6367 15.5569C43.0382 16.2994 43.239 17.1895 43.239 18.2274V30.0002H38.648V27.5798H38.5117C38.2313 28.1252 37.8563 28.6063 37.3866 29.0229C36.9169 29.432 36.3526 29.754 35.6935 29.9889C35.0344 30.2161 34.273 30.3298 33.4093 30.3298ZM34.7957 26.9888C35.5078 26.9888 36.1366 26.8487 36.6821 26.5684C37.2276 26.2805 37.6556 25.8941 37.9662 25.4093C38.2768 24.9244 38.4321 24.3752 38.4321 23.7615V21.9093C38.2806 22.0077 38.0723 22.0987 37.8071 22.182C37.5495 22.2577 37.2579 22.3297 36.9321 22.3979C36.6063 22.4585 36.2806 22.5153 35.9548 22.5684C35.6291 22.6138 35.3336 22.6555 35.0684 22.6934C34.5003 22.7767 34.004 22.9093 33.5798 23.0911C33.1556 23.2729 32.826 23.5191 32.5912 23.8297C32.3563 24.1328 32.2389 24.5116 32.2389 24.9661C32.2389 25.6252 32.4775 26.129 32.9548 26.4775C33.4397 26.8184 34.0533 26.9888 34.7957 26.9888Z" fill="white"/>
<path d="M54.8811 30.3411C53.0932 30.3411 51.5553 29.9624 50.2674 29.2048C48.9871 28.4396 48.0023 27.379 47.3129 26.0229C46.631 24.6669 46.2901 23.1062 46.2901 21.3411C46.2901 19.5532 46.6348 17.985 47.3242 16.6365C48.0212 15.2804 49.0098 14.2236 50.2902 13.466C51.5705 12.7009 53.0932 12.3183 54.8584 12.3183C56.3811 12.3183 57.7145 12.5948 58.8584 13.1478C60.0024 13.7009 60.9077 14.4774 61.5743 15.4774C62.241 16.4774 62.6084 17.6516 62.6766 19.0001H58.1084C57.9796 18.1289 57.6387 17.4282 57.0857 16.8979C56.5402 16.36 55.8243 16.091 54.9379 16.091C54.1879 16.091 53.5326 16.2956 52.972 16.7047C52.419 17.1062 51.9871 17.6933 51.6765 18.4661C51.3659 19.2388 51.2106 20.1744 51.2106 21.2729C51.2106 22.3865 51.3621 23.3335 51.6652 24.1138C51.9758 24.8941 52.4114 25.4888 52.972 25.8979C53.5326 26.307 54.1879 26.5116 54.9379 26.5116C55.491 26.5116 55.9872 26.3979 56.4266 26.1707C56.8735 25.9434 57.241 25.6138 57.5288 25.182C57.8243 24.7426 58.0175 24.2161 58.1084 23.6025H62.6766C62.6009 24.9358 62.2372 26.11 61.5857 27.1252C60.9417 28.1328 60.0516 28.9207 58.9152 29.4889C57.7789 30.057 56.4341 30.3411 54.8811 30.3411Z" fill="white"/>
<path d="M76.9693 22.5684V12.5455H81.8103V30.0002H77.1625V26.8297H76.9807C76.5868 27.8525 75.9314 28.6745 75.0148 29.2957C74.1057 29.9169 72.9958 30.2275 71.6852 30.2275C70.5185 30.2275 69.492 29.9624 68.6056 29.432C67.7193 28.9017 67.0261 28.1479 66.5261 27.1707C66.0336 26.1934 65.7836 25.0229 65.7761 23.6593V12.5455H70.617V22.7956C70.6246 23.8259 70.9011 24.6403 71.4466 25.2388C71.992 25.8373 72.7231 26.1366 73.6398 26.1366C74.2231 26.1366 74.7686 26.004 75.2761 25.7388C75.7837 25.4661 76.1928 25.0646 76.5034 24.5343C76.8216 24.004 76.9769 23.3487 76.9693 22.5684Z" fill="white"/>
<path d="M90.5234 6.72732V30.0002H85.6825V6.72732H90.5234Z" fill="white"/>
<path d="M114.141 16.4433V20.2842H103.527V16.4433H114.141Z" fill="#0A9396"/>
<path d="M118.357 30.0002V6.72732H123.277V25.9434H133.255V30.0002H118.357Z" fill="#0A9396"/>
<path d="M136.422 30.0002V12.5455H141.263V30.0002H136.422ZM138.854 10.2955C138.135 10.2955 137.517 10.0569 137.002 9.57962C136.494 9.09477 136.241 8.51522 136.241 7.84097C136.241 7.1743 136.494 6.60232 137.002 6.12505C137.517 5.64019 138.135 5.39777 138.854 5.39777C139.574 5.39777 140.188 5.64019 140.695 6.12505C141.21 6.60232 141.468 7.1743 141.468 7.84097C141.468 8.51522 141.21 9.09477 140.695 9.57962C140.188 10.0569 139.574 10.2955 138.854 10.2955Z" fill="#0A9396"/>
<path d="M149.982 19.9092V30.0002H145.141V12.5455H149.755V15.6251H149.959C150.346 14.61 150.994 13.8069 151.903 13.216C152.812 12.6175 153.914 12.3183 155.21 12.3183C156.422 12.3183 157.478 12.5834 158.38 13.1137C159.282 13.644 159.982 14.4016 160.482 15.3865C160.982 16.3638 161.232 17.5304 161.232 18.8865V30.0002H156.391V19.7502C156.399 18.682 156.126 17.8486 155.573 17.2501C155.02 16.6441 154.259 16.341 153.289 16.341C152.638 16.341 152.062 16.4812 151.562 16.7615C151.069 17.0418 150.683 17.4509 150.403 17.9888C150.13 18.5191 149.99 19.1592 149.982 19.9092Z" fill="#0A9396"/>
<path d="M169.434 24.9775L169.445 19.1706H170.15L175.741 12.5455H181.298L173.786 21.3183H172.639L169.434 24.9775ZM165.048 30.0002V6.72732H169.889V30.0002H165.048ZM175.957 30.0002L170.82 22.3979L174.048 18.9774L181.627 30.0002H175.957Z" fill="#0A9396"/>
</svg>
